<?xml version="1.0" encoding="UTF-8"?>
<svg version="1.1" xmlns="http://www.w3.org/2000/svg" width="2480" height="750">
<path d="M0 0 C386.76 0 773.52 0 1172 0 C1172 192.72 1172 385.44 1172 584 C785.24 584 398.48 584 0 584 C0 391.28 0 198.56 0 0 Z M41 40 C41 206.32 41 372.64 41 544 C400.7 544 760.4 544 1131 544 C1131 377.68 1131 211.36 1131 40 C771.3 40 411.6 40 41 40 Z " fill="#FFFFFF" transform="translate(1220,81)"/>
<path d="M0 0 C19.47 0 38.94 0 59 0 C59.33 35.64 59.66 71.28 60 108 C64.95 105.69 69.9 103.38 75 101 C79.53515625 99.4765625 79.53515625 99.4765625 83.0625 98.625 C84.24972656 98.32851563 85.43695312 98.03203125 86.66015625 97.7265625 C107.40143396 93.21442489 128.93212378 95.68523288 148 105 C148.8971875 105.41765625 149.794375 105.8353125 150.71875 106.265625 C171.65086429 116.73168214 186.46297751 136.4139012 194.12109375 158.1875 C198.12713605 170.63117719 199.41039995 182.4378521 199.375 195.4375 C199.37445618 196.18811707 199.37391235 196.93873413 199.37335205 197.71209717 C199.27197527 228.18433516 190.37379232 254.8645498 169.0625 277.25 C151.33790956 294.34778763 128.69998927 300.60612406 104.6875 300.2734375 C88.22204208 299.72057472 73.38436032 292.49185433 59 285 C59 289.29 59 293.58 59 298 C39.53 298 20.06 298 0 298 C0 199.66 0 101.32 0 0 Z M59 171 C58.84890177 172.71038168 58.76660128 174.42689465 58.71191406 176.14306641 C58.67648499 177.24155914 58.64105591 178.34005188 58.60455322 179.47183228 C58.48087782 184.51981725 58.38996264 189.56768622 58.3203125 194.61669922 C58.28021765 197.28081521 58.20551642 199.93742692 58.11523438 202.60107422 C57.98743479 206.43553859 57.93174849 210.26530631 57.890625 214.1015625 C57.83698792 215.28722809 57.78335083 216.47289368 57.72808838 217.69448853 C57.73544494 221.12409888 57.87131927 223.75758611 59 227 C62.29172872 230.19173623 65.86340176 232.08646005 70 234 C71.46992401 234.73254501 71.46992401 234.73254501 72.96954346 235.47988892 C86.38102207 242.04924993 100.32607289 245.0359044 115.02734375 241.0703125 C124.34267164 237.71630482 131.50366989 230.8829476 136.25 222.25 C143.04199685 207.14366217 142.78086223 190.69272052 137.00390625 175.35546875 C133.11433875 166.59384785 127.0365521 160.05959225 118.3125 156 C97.89062949 148.54562901 74.12000538 155.87999462 59 171 Z " fill="#FFFFFF" transform="translate(1839,224)"/>
<path d="M0 0 C2.54646671 2.22180198 4.96404577 4.51876676 7.35546875 6.90625 C8.51369141 8.04707031 8.51369141 8.04707031 9.6953125 9.2109375 C33.04411421 33.55755125 37.35546875 69.78994735 37.35546875 101.90625 C-8.51453125 102.23625 -54.38453125 102.56625 -101.64453125 102.90625 C-94.01655712 118.16219825 -87.38742654 126.04124979 -71.64453125 131.90625 C-47.8647085 137.68781367 -17.62330707 132.44821412 3.28125 120.04296875 C5.35546875 118.90625 5.35546875 118.90625 7.35546875 118.90625 C9.83314005 124.52108928 12.29021536 130.14431865 14.72851562 135.77636719 C15.56110537 137.69158337 16.39930114 139.60437252 17.24316406 141.51464844 C18.45423891 144.25880155 19.64497389 147.01101294 20.83203125 149.765625 C21.21420807 150.61993103 21.59638489 151.47423706 21.99014282 152.35443115 C22.50089859 153.55522308 22.50089859 153.55522308 23.02197266 154.78027344 C23.32841705 155.48198669 23.63486145 156.18369995 23.95059204 156.90667725 C24.48819371 159.56174146 23.79243053 160.66492078 22.35546875 162.90625 C2.53319415 183.22284567 -31.84056811 188.6373269 -58.76953125 189.09375 C-84.06908294 188.86116985 -109.81702496 183.53474969 -129.64453125 166.90625 C-130.91683594 165.87564453 -130.91683594 165.87564453 -132.21484375 164.82421875 C-150.65957574 149.17157921 -160.74082377 125.91747543 -163.36328125 102.1640625 C-165.65840908 71.87131759 -162.1901397 39.4129099 -141.859375 15.375 C-108.17220165 -22.17401862 -41.13656948 -32.56898263 0 0 Z M-90.67578125 44.4765625 C-94.12360557 48.73161553 -98.64453125 55.24965204 -98.64453125 60.90625 C-73.23453125 60.90625 -47.82453125 60.90625 -21.64453125 60.90625 C-24.14409429 49.6582163 -26.40900184 43.54164864 -35.64453125 36.90625 C-53.72313571 25.46003298 -76.13079918 29.65186924 -90.67578125 44.4765625 Z " fill="#FFFFFF" transform="translate(2229.64453125,337.09375)"/>
<path d="M0 0 C0 20.46 0 40.92 0 62 C21.45 62 42.9 62 65 62 C65 78.17 65 94.34 65 111 C43.55 111 22.1 111 0 111 C0.06193239 123.173077 0.06193239 123.173077 0.16015625 135.34570312 C0.20831244 140.31811751 0.25242363 145.29031507 0.27099609 150.26293945 C0.28625762 154.27677202 0.32086829 158.29003326 0.36830902 162.30360985 C0.38302579 163.826774 0.39103538 165.35001977 0.39188385 166.87325478 C0.40343505 177.22251651 1.29412968 186.14233401 6.9375 195.0625 C11.69891939 199.53534852 17.15978903 199.4877185 23.39453125 199.375 C37.7293807 197.88405141 49.76722144 189.64637291 60 180 C62.08627379 182.08627379 62.57234485 183.18399416 63.51220703 185.91137695 C63.7923465 186.71593826 64.07248596 187.52049957 64.3611145 188.34944153 C64.65702484 189.22025864 64.95293518 190.09107574 65.2578125 190.98828125 C65.56572723 191.88363083 65.87364197 192.77898041 66.19088745 193.70146179 C66.84100162 195.59772956 67.48806638 197.4950451 68.13232422 199.39331055 C69.11861547 202.29372484 70.11919633 205.18892958 71.12109375 208.08398438 C71.75087512 209.92678449 72.37980932 211.76987439 73.0078125 213.61328125 C73.3077713 214.47802567 73.6077301 215.34277008 73.91677856 216.23371887 C76.52809962 223.9962791 76.52809962 223.9962791 76 228 C65.60256395 244.75822046 42.46519279 255.41440888 24 260 C5.53980864 263.52915423 -13.07319075 258.18713715 -28.4765625 247.859375 C-44.7169847 235.89274812 -53.67627299 215.67552742 -57.52684021 196.35678101 C-58.07267294 192.48442971 -58.13234346 188.6919054 -58.11352539 184.79150391 C-58.11367142 183.99083496 -58.11381744 183.19016602 -58.1139679 182.36523438 C-58.1132748 179.73564891 -58.10551076 177.1061355 -58.09765625 174.4765625 C-58.09578993 172.64667805 -58.09436704 170.81679309 -58.09336853 168.98690796 C-58.08956023 164.18323372 -58.0797444 159.37958997 -58.06866455 154.57592773 C-58.05841411 149.66911227 -58.05386314 144.76229185 -58.04882812 139.85546875 C-58.03812056 130.23696365 -58.02053747 120.61848914 -58 111 C-66.91 111 -75.82 111 -85 111 C-85 94.83 -85 78.66 -85 62 C-76.09 62 -67.18 62 -58 62 C-58 49.79 -58 37.58 -58 25 C-27.2944615 11.09300723 -27.2944615 11.09300723 -12.6875 4.625 C-11.63377197 4.15537842 -10.58004395 3.68575684 -9.49438477 3.2019043 C-8.04890259 2.56442261 -8.04890259 2.56442261 -6.57421875 1.9140625 C-5.73463623 1.5423291 -4.89505371 1.1705957 -4.0300293 0.78759766 C-2 0 -2 0 0 0 Z " fill="#FFFFFF" transform="translate(1435,261)"/>
<path d="M0 0 C2.49289038 2.18080908 4.8710455 4.42598242 7.21484375 6.765625 C7.83875 7.37792969 8.46265625 7.99023438 9.10546875 8.62109375 C30.74340447 31.4773817 34.21484375 67.89849188 34.21484375 97.765625 C-18.25515625 97.765625 -70.72515625 97.765625 -124.78515625 97.765625 C-119.73267138 121.76492814 -113.3322607 140.71378345 -92.6796875 155.01171875 C-75.62008088 165.34878133 -54.47852372 166.4541947 -35.28515625 162.140625 C-32.42291071 161.43344442 -29.60245647 160.63397096 -26.78515625 159.765625 C-26.10549805 159.55663574 -25.42583984 159.34764648 -24.72558594 159.13232422 C-15.22431782 156.09927952 -6.69071142 151.77318885 1.88671875 146.71875 C4.30953762 145.29690794 6.69827712 143.99853694 9.21484375 142.765625 C10.66918309 146.55146992 12.11130051 150.34171969 13.54223633 154.13647461 C14.03075548 155.42680766 14.5225995 156.71588699 15.01782227 158.00366211 C15.72894542 159.85457945 16.42715712 161.71044115 17.125 163.56640625 C17.54918213 164.68184814 17.97336426 165.79729004 18.41040039 166.9465332 C19.21484375 169.765625 19.21484375 169.765625 18.21484375 172.765625 C16.13483068 174.30513832 14.12050766 175.64016038 11.90234375 176.953125 C11.24226318 177.34459717 10.58218262 177.73606934 9.90209961 178.1394043 C-19.67235205 195.07368552 -55.73188158 200.60996502 -88.84375 192.24560547 C-102.71609969 188.4032393 -114.93200495 182.22533372 -125.78515625 172.765625 C-126.38457031 172.30929687 -126.98398437 171.85296875 -127.6015625 171.3828125 C-142.16383454 160.09789635 -151.09698354 141.07989922 -155.78515625 123.765625 C-156.10484375 122.60160156 -156.42453125 121.43757812 -156.75390625 120.23828125 C-161.23466298 100.13710871 -161.17722527 74.66250503 -155.78515625 54.765625 C-155.58647949 54.03037598 -155.38780273 53.29512695 -155.18310547 52.53759766 C-150.91553831 37.38214006 -144.43540241 23.52034113 -133.78515625 11.765625 C-133.0478125 10.93546875 -132.31046875 10.1053125 -131.55078125 9.25 C-99.60210942 -24.78682031 -36.43647467 -29.23094462 0 0 Z M-106.16015625 30.23046875 C-114.82257863 40.19518098 -123.78515625 55.13060549 -123.78515625 68.765625 C-83.19515625 68.765625 -42.60515625 68.765625 -0.78515625 68.765625 C-2.49625308 49.94355984 -9.11539939 34.11910446 -23.78515625 21.765625 C-49.10604784 2.96739508 -84.87950975 8.14479779 -106.16015625 30.23046875 Z " fill="#FFFFFF" transform="translate(434.78515625,329.234375)"/>
<path d="M0 0 C10.89 0 21.78 0 33 0 C33.01458252 4.04652832 33.02916504 8.09305664 33.04418945 12.26220703 C33.09463463 25.66529046 33.16109942 39.06825488 33.23571491 52.47122383 C33.28054512 60.59359559 33.31998868 68.71592476 33.34643555 76.83837891 C33.3695197 83.92376052 33.40303239 91.00900586 33.44870156 98.09427917 C33.47249445 101.84058406 33.49131389 105.58675517 33.49761391 109.3331337 C33.50372866 112.87087752 33.52395359 116.40827967 33.55427551 119.94589615 C33.5670432 121.83968356 33.56550342 123.73355123 33.5632782 125.62738037 C33.73194449 141.28001859 37.02005181 156.29122408 48 168 C59.7990292 175.76053645 73.97563236 179.88736981 88 177 C102.01370464 173.21207287 114.4267057 166.00984449 125.49472046 156.74249268 C127.7826455 154.86817077 130.0339168 153.38444029 132.64151001 151.99554443 C138.11967541 148.76431523 142.15660453 145.26507526 143.79357147 138.92781067 C144.99426372 130.03041463 144.79090922 121.06606914 144.62144423 112.10934162 C144.56163628 108.16155792 144.58183261 104.21415712 144.59317017 100.26605225 C144.60262419 92.80686568 144.5412019 85.35005317 144.45364916 77.89144301 C144.35739241 69.39315757 144.34115211 60.89529073 144.3312881 52.39653444 C144.30924047 34.9296904 144.17727604 17.46600589 144 0 C155.22 0 166.44 0 178 0 C178 68.64 178 137.28 178 208 C166.78 208 155.56 208 144 208 C143.67 199.42 143.34 190.84 143 182 C141.494375 183.299375 139.98875 184.59875 138.4375 185.9375 C129.36654611 193.32649952 119.48298212 199.09617139 108.8125 203.875 C108.20833252 204.14908691 107.60416504 204.42317383 106.98168945 204.70556641 C97.19925868 208.89413676 87.41186798 210.54410164 76.8125 210.4375 C75.72461182 210.42847656 74.63672363 210.41945313 73.51586914 210.41015625 C54.04547763 209.9959232 35.61069584 204.09659479 21.68359375 189.984375 C6.22514212 173.31382136 -0.70117256 153.24758195 -0.45410156 130.78125 C-0.45296903 129.34048494 -0.45361482 127.89971759 -0.45587158 126.45895386 C-0.45700389 122.60444199 -0.43373998 118.75044361 -0.40557575 114.8960495 C-0.3803101 110.84690562 -0.37820052 106.79774571 -0.37347412 102.74853516 C-0.36111737 95.1061906 -0.32839638 87.46407911 -0.28807616 79.82183647 C-0.24312897 71.11066063 -0.22131414 62.39947275 -0.20129442 53.68820953 C-0.15965579 35.79198132 -0.08639666 17.89607197 0 0 Z " fill="#FFFFFF" transform="translate(712,314)"/>
<path d="M0 0 C1.68759563 1.44324364 3.35895525 2.90043541 5.01220703 4.3828125 C0.82071767 24.91472739 0.82071767 24.91472739 -1.98779297 34.3828125 C-6.16201258 32.91182367 -9.46602816 30.81153617 -13.11279297 28.3203125 C-36.62036202 12.84613352 -62.97277608 5.75007791 -90.94433594 10.97045898 C-102.3628707 13.34654718 -114.50640219 18.0004892 -121.42529297 27.8203125 C-125.37172868 34.36855347 -126.83532567 40.7967001 -125.98779297 48.3828125 C-123.83354161 55.24948871 -118.5613412 58.44737429 -112.49951172 61.73046875 C-98.9164484 68.01287569 -84.06288707 69.58081286 -69.2824707 70.02929688 C-43.96413269 70.86796264 -16.65985303 75.89262315 2.01220703 94.3828125 C11.90794541 105.94014874 16.08280178 120.28059299 15.01220703 135.3828125 C13.7174586 148.78619412 9.17855979 159.49006953 0.01220703 169.3828125 C-0.54724609 169.99640625 -1.10669922 170.61 -1.68310547 171.2421875 C-20.05401315 189.20119142 -50.45813892 193.96072994 -75.02758789 193.73632812 C-100.90340608 192.97885514 -135.25290395 183.11770152 -153.98779297 164.3828125 C-153.79982393 160.3342486 -152.7962596 156.34756554 -151.98779297 152.3828125 C-151.8347168 151.62049316 -151.68164062 150.85817383 -151.52392578 150.07275391 C-151.02475364 147.61072707 -150.50942106 145.15267363 -149.98779297 142.6953125 C-149.8219873 141.89287109 -149.65618164 141.09042969 -149.48535156 140.26367188 C-149.05180672 138.2878306 -148.52734735 136.33237423 -147.98779297 134.3828125 C-147.32779297 134.0528125 -146.66779297 133.7228125 -145.98779297 133.3828125 C-144.90884766 134.13304687 -143.82990234 134.88328125 -142.71826172 135.65625 C-127.48175808 146.11577381 -111.95815617 155.54707434 -93.98779297 160.3828125 C-93.10736328 160.62644531 -92.22693359 160.87007812 -91.31982422 161.12109375 C-72.52305267 165.40500913 -48.7468008 162.98471051 -32.31982422 152.71484375 C-26.0884157 148.10990401 -21.79715134 143.07258556 -19.98779297 135.3828125 C-18.9318816 128.0759058 -20.78317364 122.40703482 -24.98779297 116.3828125 C-35.66115712 105.0932033 -54.54024428 101.93147169 -69.41381836 101.27587891 C-71.10369046 101.22919095 -72.79363791 101.18516859 -74.48364258 101.14355469 C-101.06455844 100.42026446 -129.85660613 95.34729967 -148.98779297 75.3828125 C-157.32341961 66.32704533 -160.09763835 55.5207276 -159.98779297 43.3828125 C-158.97797746 26.28807855 -153.33898934 12.11494993 -140.86279297 0.1953125 C-104.9762812 -29.84348294 -36.41554426 -29.6262055 0 0 Z " fill="#FFFFFF" transform="translate(235.98779296875,331.6171875)"/>
<path d="M0 0 C0.12579723 21.69518385 -0.09478604 43.3206072 -1 65 C-6.78369141 65.14648438 -6.78369141 65.14648438 -8.73046875 63.828125 C-9.21128906 63.30734375 -9.69210937 62.7865625 -10.1875 62.25 C-15.6736633 57.15052662 -22.62743057 54.85071082 -30.0625 54.5 C-42.14875055 55.11003157 -52.44166898 62.86579199 -60.375 71.5 C-62.21705034 73.55915448 -62.21705034 73.55915448 -64 76 C-64.41295665 76.52404922 -64.8259133 77.04809845 -65.25138378 77.58802795 C-69.44325557 83.44822542 -69.71763942 88.40138604 -69.65942383 95.46484375 C-69.67514938 97.14908699 -69.67514938 97.14908699 -69.69119263 98.86735535 C-69.71986314 102.55768742 -69.71365993 106.24707685 -69.70703125 109.9375 C-69.720151 112.50440645 -69.73545607 115.07130258 -69.75285339 117.63818359 C-69.78861799 123.69058129 -69.80243605 129.74266002 -69.8054778 135.79515076 C-69.81064012 143.36745106 -69.84962656 150.93953034 -69.88867188 158.51171875 C-69.95811526 172.00787581 -69.97668634 185.50350948 -70 199 C-89.47 199 -108.94 199 -129 199 C-129 133.33 -129 67.66 -129 0 C-109.53 0 -90.06 0 -70 0 C-69.67 6.6 -69.34 13.2 -69 20 C-67.411875 18.329375 -65.82375 16.65875 -64.1875 14.9375 C-46.41631277 -3.1021422 -23.87715648 -8.21449354 0 0 Z " fill="#FFFFFF" transform="translate(1681,323)"/>
<path d="M0 0 C0.99 0.66 1.98 1.32 3 2 C1.2549073 7.86627209 -1.33303871 13.29164338 -3.9375 18.8125 C-4.38029297 19.77865234 -4.82308594 20.74480469 -5.27929688 21.74023438 C-5.71177734 22.65740234 -6.14425781 23.57457031 -6.58984375 24.51953125 C-7.17560181 25.77407104 -7.17560181 25.77407104 -7.77319336 27.05395508 C-9 29 -9 29 -12 30 C-14.46875 28.6640625 -14.46875 28.6640625 -17.5 26.625 C-38.85535721 12.85450844 -61.9410399 5.30445443 -87.484375 8.42578125 C-103.90484969 12.04272365 -117.60573027 21.96068749 -127.4140625 35.453125 C-139.68810263 55.16414511 -143.52504698 78.81115119 -138.96801758 101.63183594 C-134.8670397 118.54917191 -125.44051661 134.37790736 -110.94140625 144.21875 C-93.52476012 154.76588232 -75.46750553 157.38575201 -55.65234375 152.96875 C-42.12689703 149.38125183 -28.24600384 143.01875815 -17.41796875 134.03125 C-16 133 -16 133 -14 133 C-12.2016622 136.53831716 -10.41253386 140.08121413 -8.625 143.625 C-8.11710938 144.62402344 -7.60921875 145.62304688 -7.0859375 146.65234375 C-6.59609375 147.62558594 -6.10625 148.59882813 -5.6015625 149.6015625 C-5.15119629 150.49182129 -4.70083008 151.38208008 -4.23681641 152.29931641 C-2.93241811 155.14757024 -1.93927729 158.0134816 -1 161 C-26.50754114 180.57313361 -55.78358988 192.2570549 -88.3515625 188.57421875 C-111.25923993 185.36070615 -130.69826268 175.10384066 -147 159 C-147.98033203 158.12794922 -147.98033203 158.12794922 -148.98046875 157.23828125 C-168.183524 139.79294273 -174.86739189 111.27462617 -176.12890625 86.46484375 C-176.80925059 57.11932436 -168.54159145 27.95556509 -148.19921875 6.30078125 C-147.47347656 5.54152344 -146.74773438 4.78226562 -146 4 C-145.38769531 3.31292969 -144.77539062 2.62585938 -144.14453125 1.91796875 C-106.2360152 -39.06202621 -41.15916556 -29.07761945 0 0 Z " fill="#FFFFFF" transform="translate(674,336)"/>
<path d="M0 0 C18.81 0 37.62 0 57 0 C57 65.67 57 131.34 57 199 C38.19 199 19.38 199 0 199 C0 133.33 0 67.66 0 0 Z " fill="#FFFFFF" transform="translate(1733,323)"/>
<path d="M0 0 C-0.60829261 13.08877898 -2.28536324 26.01682853 -4 39 C-4.52529297 38.59370361 -5.05058594 38.18740723 -5.59179688 37.76879883 C-13.62082126 31.63735952 -21.50303421 27.0516488 -31.93359375 28.37109375 C-51.94491881 32.23882885 -66.52893966 46.6238528 -80 61 C-80.50472399 61.43510423 -81.00944798 61.87020845 -81.52946663 62.31849766 C-85.34005246 65.95614001 -86.43548524 68.82614104 -86.75949097 74.08079529 C-86.79450626 76.54116729 -86.79671527 79.00214011 -86.77294922 81.46264648 C-86.78112879 82.8232854 -86.79193626 84.18391065 -86.80516052 85.54450989 C-86.83350958 89.2219488 -86.82527416 92.89848897 -86.81029272 96.57597232 C-86.80089226 100.42509648 -86.82538208 104.27400432 -86.84622192 108.12306213 C-86.88052418 115.40443508 -86.88450533 122.6854938 -86.87749684 129.9669314 C-86.87099847 138.25965504 -86.89844825 146.55215872 -86.92869925 154.84481704 C-86.99014509 171.89663315 -87.00464152 188.94805435 -87 206 C-98.22 206 -109.44 206 -121 206 C-121 137.36 -121 68.72 -121 -2 C-109.78 -2 -98.56 -2 -87 -2 C-86.67 7.24 -86.34 16.48 -86 26 C-83.69 23.69 -81.38 21.38 -79 19 C-57.95124004 0.47844036 -27.40426734 -14.39036869 0 0 Z " fill="#FFFFFF" transform="translate(1055,316)"/>
<path d="M0 0 C10.89 0 21.78 0 33 0 C33 68.64 33 137.28 33 208 C22.11 208 11.22 208 0 208 C0 139.36 0 70.72 0 0 Z " fill="#FFFFFF" transform="translate(1104,314)"/>
<path d="M0 0 C6.7352668 5.80626448 10.46394316 12.8273278 11.37890625 21.65625 C11.72908533 32.95234938 9.47740122 40.0491855 1.7890625 48.27734375 C-3.77517541 53.63504881 -9.69695211 56.00537808 -17.375 56.3125 C-25.84128607 56.068142 -32.92999462 52.878321 -39 47 C-45.19814969 39.57871212 -47.53796151 32.24916559 -47.31640625 22.6484375 C-46.30096417 14.14881123 -42.60301503 5.80939175 -35.9609375 0.3125 C-24.57734638 -7.82422492 -11.71285705 -8.03509989 0 0 Z " fill="#FFFFFF" transform="translate(1780,245)"/>
<path d="M0 0 C5.60280164 3.93585239 8.67916713 8.54396094 9.890625 15.328125 C10.60470571 21.63583796 8.92141475 26.84295337 5.890625 32.328125 C2.49558732 36.23151057 -1.74224289 39.07426821 -6.9140625 39.62890625 C-18.68930065 39.67384991 -18.68930065 39.67384991 -23.7265625 34.74609375 C-28.95130862 29.00887254 -30.65185653 24.00258226 -30.484375 16.24609375 C-29.7556647 10.57581672 -27.48161198 5.63152474 -23.359375 1.62890625 C-16.15229082 -3.7919394 -7.82701504 -4.37573282 0 0 Z " fill="#FFFFFF" transform="translate(1131.109375,235.671875)"/>
</svg>
